<svg width="94" height="72" viewBox="0 0 94 72" fill="none" xmlns="http://www.w3.org/2000/svg">
<path d="M83.7188 1.33749C82.7088 0.684085 81.5537 0.288788 80.3552 0.186347C79.1566 0.0839064 77.9512 0.277459 76.845 0.749992L40.5962 15.0262C39.7381 15.3755 38.8203 15.5551 37.8937 15.555H14.6875C12.7398 15.555 10.8719 16.3287 9.49468 17.7059C8.11746 19.0831 7.34375 20.9511 7.34375 22.8987V23.4862H0V41.1112H7.34375V41.875C7.38977 43.792 8.18375 45.6149 9.55602 46.9542C10.9283 48.2936 12.77 49.043 14.6875 49.0425L23.5 67.725C24.0967 68.9831 25.0362 70.0474 26.2105 70.7956C27.3848 71.5438 28.7464 71.9457 30.1388 71.955H33.84C35.7775 71.9395 37.6303 71.1589 38.9949 69.7834C40.3594 68.4079 41.1251 66.5488 41.125 64.6112V49.7475L76.845 64.0237C77.7236 64.3734 78.6606 64.5528 79.6063 64.5525C81.0733 64.5288 82.5019 64.0798 83.7188 63.26C84.6851 62.6076 85.4821 61.7344 86.044 60.7128C86.6059 59.6912 86.9165 58.5505 86.95 57.385V7.38874C86.9446 6.19327 86.6475 5.01719 86.0844 3.96264C85.5213 2.90809 84.7092 2.00695 83.7188 1.33749ZM33.7812 22.8987V41.875H14.6875V22.8987H33.7812ZM33.7812 64.6112H30.08L22.8538 49.0425H33.7812V64.6112ZM43.2987 42.7562C42.6012 42.3998 41.8739 42.1049 41.125 41.875V22.4875C41.8667 22.3345 42.5939 22.1183 43.2987 21.8412L79.6063 7.38874V57.2087L43.2987 42.7562ZM87.1263 24.955V39.6425C89.0739 39.6425 90.9418 38.8688 92.3191 37.4916C93.6963 36.1143 94.47 34.2464 94.47 32.2987C94.47 30.3511 93.6963 28.4831 92.3191 27.1059C90.9418 25.7287 89.0739 24.955 87.1263 24.955Z" fill="white"/>
</svg>
