<svg width="66" height="54" viewBox="0 0 66 54" fill="none" xmlns="http://www.w3.org/2000/svg">
<path d="M63.7241 4.62066L63.8759 4.77239C65.5448 7.19997 66.3035 10.0827 65.8483 12.8138C65.5448 15.5448 64.0276 18.1241 61.6 19.9448L16.8414 53.6276L5.15862 53.7793C4.4 53.7793 3.64138 53.6276 2.88276 53.1724C2.12414 52.8689 1.51724 52.4138 1.06207 51.6552C0.606897 51.0483 0.151724 50.2896 0 49.531C0 48.7724 0 48.0138 0.303448 47.1034L3.64138 36.0276L48.4 2.3448C50.8276 0.524109 53.7104 -0.0827876 56.4414 0.372385C59.3241 0.675833 61.9035 2.19307 63.7241 4.62066ZM49.1586 8.56549L55.9862 17.5172L58.4138 15.6965C59.6276 14.7862 60.3862 13.4207 60.5379 12.0551C60.6897 10.6896 60.3862 9.17239 59.4759 7.95859L59.3241 7.80687C58.4138 6.59307 57.2 5.83445 55.6828 5.68273C54.3172 5.37928 52.9517 5.83445 51.7379 6.59307L49.1586 8.56549ZM51.7379 20.7034L44.9103 11.7517L11.6828 36.7862L18.3586 45.7379L51.7379 20.7034ZM13.6552 48.3172L7.88966 40.5793L5.46207 48.4689L13.6552 48.3172Z" fill="white"/>
</svg>
