<svg width="74" height="74" viewBox="0 0 74 74" fill="none" xmlns="http://www.w3.org/2000/svg">
<g clip-path="url(#clip0_3_5)">
<path d="M70.1315 16.856H37.8536L47.9302 6.77944C48.1831 6.52651 48.1831 6.11995 47.9302 5.86702L45.4122 3.34668C45.1615 3.09375 44.7527 3.09375 44.502 3.34668L31.5393 16.3094L18.5812 3.34668C18.3283 3.09375 17.9217 3.09375 17.6688 3.34668L15.1485 5.86702C14.8955 6.11995 14.8955 6.52651 15.1485 6.77944L25.2295 16.856H3.86852C1.73221 16.856 0 18.5904 0 20.7267V66.9722C0 69.1085 1.73206 70.8429 3.86852 70.8429H70.1316C72.2679 70.8429 74.0001 69.1085 74.0001 66.9722V20.7267C74 18.5904 72.2679 16.856 70.1315 16.856ZM55.4413 60.8749C55.4413 62.1079 54.4432 63.1062 53.2124 63.1062H9.66105C8.42805 63.1062 7.42977 62.108 7.42977 60.8749V27.732C7.42977 26.499 8.42791 25.5007 9.66105 25.5007H53.2124C54.4432 25.5007 55.4413 26.4989 55.4413 27.732V60.8749ZM68.3904 48.2465H61.8685V41.7245H68.3904V48.2465ZM64.9013 33.8429C62.8915 33.8429 61.2632 32.2125 61.2632 30.2025C61.2632 28.1925 62.8915 26.562 64.9013 26.562C66.9112 26.562 68.5395 28.1925 68.5395 30.2025C68.5395 32.2125 66.9112 33.8429 64.9013 33.8429Z" fill="white"/>
</g>
<defs>
<clipPath id="clip0_3_5">
<rect width="74" height="74" fill="white"/>
</clipPath>
</defs>
</svg>
